# AST/ASF file generated using VICON BodyLanguage
# -----------------------------------------------
:version 1.10
:name VICON
:units
  mass 1.0
  length 0.45
  angle deg
:documentation
   .ast/.asf automatically generated from VICON data using
   VICON BodyBuilder and BodyLanguage model FoxedUp or BRILLIANT.MOD
:root
   order TX TY TZ RX RY RZ
   axis XYZ
   position 0 0 0  
   orientation 0 0 0 
:bonedata
  begin
     id 1 
     name lhipjoint
     direction 0.54267 -0.795011 0.271047 
     length 2.39899 
     axis 0 0 0  XYZ
  end
  begin
     id 2 
     name lfemur
     direction 0.34202 -0.939693 0  
     length 7.49701  
     axis 0 0 20  XYZ
    dof rx ry rz
    limits (-160.0 20.0)
           (-70.0 70.0)
           (-60.0 70.0)
  end
  begin
     id 3 
     name ltibia
     direction 0.34202 -0.939693 0   
     length 8.1668   
     axis 0 0 20   XYZ
    dof rx
    limits (-10.0 170.0)
  end
  begin
     id 4 
     name lfoot
     direction 0.0736283 -0.202292 0.976554   
     length 2.13544   
     axis -90 7.62852e-016 20   XYZ
    dof rx rz
    limits (-45.0 90.0)
           (-70.0 20.0)
  end
  begin
     id 5 
     name ltoes
     direction 1.53557e-011 -4.22024e-011 1   
     length 1.07411   
     axis -90 7.62852e-016 20   XYZ
    dof rx
    limits (-90.0 20.0)
  end
  begin
     id 6 
     name rhipjoint
     direction -0.538061 -0.797813 0.272002   
     length 2.39057  
     axis 0 0 0  XYZ 
  end
  begin
     id 7 
     name rfemur
     direction -0.34202 -0.939693 0   
     length 7.50152   
     axis 0 0 -20   XYZ
    dof rx ry rz
    limits (-160.0 20.0)
           (-70.0 70.0)
           (-70.0 60.0)
  end
  begin
     id 8 
     name rtibia
     direction -0.34202 -0.939693 0   
     length 8.05793   
     axis 0 0 -20   XYZ
    dof rx
    limits (-10.0 170.0)
 end
 begin
     id 9 
     name rfoot
     direction -0.0765195 -0.210236 0.974652   
     length 2.28698  
     axis -90 -7.62852e-016 -20   XYZ
    dof rx rz
    limits (-45.0 90.0)
           (-20.0 70.0)
  end
  begin
     id 10 
     name rtoes
     direction -1.53542e-011 -4.21847e-011 1   
     length 1.14762   
     axis -90 -7.62852e-016 -20   XYZ
    dof rx
    limits (-90.0 20.0)
  end
  begin
     id 11 
     name lowerback
     direction -0.0217239 0.996592 -0.0795765   
     length 2.08176   
     axis 0 0 0   XYZ
    dof rx ry rz
    limits (-20.0 45.0)
           (-30.0 30.0)
           (-30.0 30.0)
  end
  begin
     id 12 
     name upperback
     direction -0.00563773 0.999651 -0.0258155   
     length 2.08898   
     axis 0 0 0   XYZ
    dof rx ry rz
    limits (-20.0 45.0)
           (-30.0 30.0)
           (-30.0 30.0)
  end
  begin
     id 13 
     name thorax
     direction 0.0032706 0.999923 0.0119599   
     length 2.0968   
     axis 0 0 0   XYZ
    dof rx ry rz
    limits (-20.0 45.0)
           (-30.0 30.0)
           (-30.0 30.0)
  end
  begin
     id 14 
     name lowerneck
     direction -0.0285886 0.99568 0.0883427   
     length 1.81272   
     axis 0 0 0   XYZ
    dof rx ry rz
    limits (-20.0 45.0)
           (-30.0 30.0)
           (-30.0 30.0)
  end
  begin
     id 15 
     name upperneck
     direction 0.0807535 0.97985 -0.18268   
     length 1.82518   
     axis 0 0 0   XYZ
    dof rx ry rz
    limits (-20.0 45.0)
           (-30.0 30.0)
           (-30.0 30.0)
  end
  begin
     id 16
     name head
     direction 0.0236605 0.997053 -0.0729767  
     length 1.84443  
     axis 0 0 0   XYZ
    dof rx ry rz
    limits (-20.0 45.0)
           (-30.0 30.0)
           (-30.0 30.0)
  end
  begin
     id 17 
     name lclavicle
     direction 0.918986 0.39378 -0.0200683  
     length 3.27822  
     axis 0 0 0   XYZ
    dof ry rz
    limits (-20.0 10.0)
           (0.0 20.0)
  end
  begin
     id 18 
     name lhumerus
     direction 1 -4.4897e-011 2.09544e-027   
     length 5.5568   
     axis 180 -30 -90   XYZ
    dof rx ry rz
    limits (-60.0 90.0)
           (-90.0 90.0)
           (-90.0 90.0)
  end
  begin
     id 19
     name lradius
     direction 1 -4.48957e-011 -1.27696e-026   
     length 3.63979   
     axis 180 -30 -90   XYZ
    dof rx
    limits (-10.0 170.0)
  end
  begin
     id 20
     name lwrist
     direction 1 -4.49001e-011 -1.49001e-026   
     length 1.8199   
     axis 9.0955e-015 90 90   XYZ
    dof ry
    limits (-180.0 0.0)
 end
  begin
     id 21 
     name lhand
     direction 1 -4.48709e-011 -2.9758e-026   
     length 0.569419   
     axis 1.90115e-014 90 90   XYZ
    dof rx rz
    limits (-90.0 90.0)
           (-45.0 45.0)
  end
  begin
     id 22 
     name lfingers
     direction 1 -4.49175e-011 -5.96505e-026   
     length 0.45908   
     axis 3.80223e-014 90 90   XYZ
    dof rx
    limits (0.0 90.0)
  end
  begin
     id 23
     name lthumb
     direction 0.707107 -6.34864e-011 0.707107   
     length 0.65915   
     axis -90 45 -3.84942e-014   XYZ
    dof rx rz
    limits (-45.0 45.0)
           (-45.0 45.0)
  end
  begin
     id 24 
     name rclavicle
     direction -0.911913 0.396426 -0.106115   
     length 3.46301  
     axis 0 0 0   XYZ 
    dof ry rz
    limits (-10.0 20.0)
           (-20.0 0.0)
  end
  begin
     id 25 
     name rhumerus
     direction -1 -4.48965e-011 7.78516e-028  
     length 5.34339   
     axis 180 30 90   XYZ
    dof rx ry rz
    limits (-90.0 60.0)
           (-90.0 90.0)
           (-90.0 90.0)
  end
  begin
     id 26 
     name rradius
     direction -1 -4.48948e-011 -5.79823e-027   
     length 3.65101   
     axis 180 30 90   XYZ
    dof rx
    limits (-10.0 170.0)
  end
  begin
     id 27 
     name rwrist
     direction -1 -4.48995e-011 -1.48996e-026   
     length 1.8255   
     axis 9.0955e-015 -90 -90   XYZ
    dof ry
    limits (-180.0 0.0)
  end
  begin
     id 28
     name rhand
     direction -1 -4.48957e-011 -2.97937e-026   
     length 0.694249   
     axis 1.90115e-014 -90 -90   XYZ
    dof rx rz
    limits (-90.0 90.0)
           (-45.0 45.0)
  end
  begin
     id 29
     name rfingers
     direction -1 -4.4898e-011 -5.95943e-026   
     length 0.559721   
     axis 3.80223e-014 -90 -90   XYZ
    dof rx
    limits (0.0 90.0)
  end
  begin
     id 30
     name rthumb
     direction -0.707107 -6.34969e-011 0.707107   
     length 0.803651   
     axis -90 -45 3.84942e-014   XYZ
    dof rx rz
    limits (-45.0 45.0)
           (-45.0 45.0)
  end
:hierarchy
  begin
    root lhipjoint rhipjoint lowerback
    lhipjoint lfemur
    lfemur ltibia
    ltibia lfoot
    lfoot ltoes
    rhipjoint rfemur
    rfemur rtibia
    rtibia rfoot
    rfoot rtoes
    lowerback upperback
    upperback thorax
    thorax lowerneck lclavicle rclavicle
    lowerneck upperneck
    upperneck head
    lclavicle lhumerus
    lhumerus lradius
    lradius lwrist
    lwrist lhand lthumb
    lhand lfingers
    rclavicle rhumerus
    rhumerus rradius
    rradius rwrist
    rwrist rhand rthumb
    rhand rfingers
  end

#!OML:ASF H:\Terrain\Walking\May29\JustinRory\rory.ASF
:FULLY-SPECIFIED
:DEGREES
161
root 13.0019 10.1206 12.6277 -17.6433 17.2617 -2.89756
lowerback 44.8989 -5.3928 -3.00323
upperback 17.5091 -7.01079 3.41148
thorax -0.403196 -3.80409 7.66153
lowerneck 3.18606 -20.8239 -11.7749
upperneck 23.8325 -34.4843 23.2892
head 14.4619 -15.4977 5.32915
rclavicle -3.4191e-014 8.50798e-014
rhumerus -80.5017 -33.5512 -17.6681
rradius 114.625
rwrist 19.8454
rhand -30.9759 27.9976
rfingers 7.12502
rthumb -4.25983 -1.93956
lclavicle -3.4191e-014 8.50798e-014
lhumerus -12.7637 15.5097 20.7123
lradius 67.7577
lwrist 15.2072
lhand -24.684 9.37706
lfingers 7.12502
lthumb 1.81672 39.3491
rfemur -80.0751 -0.949824 8.01967
rtibia 100.7
rfoot -8.37448 3.65791
rtoes -10.6219
lfemur -67.7666 10.374 15.3901
ltibia 78.8555
lfoot 11.28 -18.5359
ltoes -29.952
162
root 12.9759 10.1217 12.6243 -17.8335 17.2641 -2.90615
lowerback 44.8436 -5.37575 -2.96297
upperback 17.821 -6.96363 3.49107
thorax -0.0385973 -3.80466 7.68879
lowerneck 3.21032 -20.8426 -11.88
upperneck 23.3358 -34.4837 23.6923
head 14.3644 -15.5204 5.47337
rclavicle 4.51241e-014 -8.36883e-014
rhumerus -80.2413 -33.4702 -17.9747
rradius 114.346
rwrist 18.5463
rhand -29.7393 28.775
rfingers 7.12502
rthumb -3.06567 -1.18267
lclavicle 4.51241e-014 -8.36883e-014
lhumerus -12.01 14.6674 21.3643
lradius 68.3477
lwrist 15.256
lhand -24.709 9.42235
lfingers 7.12502
lthumb 1.79259 39.3946
rfemur -79.8043 -0.858225 8.11208
rtibia 100.723
rfoot -8.5692 2.93297
rtoes -12.2396
lfemur -67.4743 10.4688 15.4106
ltibia 78.5892
lfoot 11.4127 -18.8298
ltoes -29.5462
163
root 12.9595 10.1295 12.6127 -18.0168 17.6557 -2.571
lowerback 44.9846 -5.50688 -3.00928
upperback 18.0783 -7.12354 3.41996
thorax 0.237634 -3.89208 7.68036
lowerneck 3.14468 -20.8293 -11.5231
upperneck 22.7562 -34.3399 23.9103
head 14.0585 -15.4586 5.53318
rclavicle -8.5875e-014 5.36719e-014
rhumerus -80.0387 -33.4385 -18.4953
rradius 112.71
rwrist 21.0461
rhand -32.0666 28.4742
rfingers 7.12502
rthumb -5.31305 -1.43916
lclavicle -8.5875e-014 5.36719e-014
lhumerus -11.1012 13.937 22.1301
lradius 68.8064
lwrist 15.1494
lhand -24.8489 9.58048
lfingers 7.12502
lthumb 1.65747 39.5538
rfemur -79.1374 -1.26835 7.66997
rtibia 100.841
rfoot -9.3963 2.7646
rtoes -13.7123
lfemur -67.2566 10.1007 14.9254
ltibia 78.3404
lfoot 11.7677 -18.5663
ltoes -27.2355
164
root 12.9485 10.1687 12.5856 -18.0483 18.3873 -1.72559
lowerback 45.2376 -5.76475 -3.26372
upperback 18.1358 -7.51621 3.24487
thorax 0.30219 -4.08436 7.76024
lowerneck 3.19362 -20.8072 -11.7657
upperneck 22.6717 -34.2703 23.928
head 14.0473 -15.4497 5.58466
rclavicle 2.48481e-014 8.74653e-015
rhumerus -79.7245 -33.1974 -18.97
rradius 111.918
rwrist 21.4681
rhand -32.0485 28.1549
rfingers 7.12502
rthumb -5.29556 -1.75891
lclavicle 2.48481e-014 8.74653e-015
lhumerus -10.428 13.0497 23.0731
lradius 69.2254
lwrist 14.96
lhand -25.3897 9.45679
lfingers 7.12502
lthumb 1.13515 39.4335
rfemur -78.2947 -1.89249 6.65427
rtibia 100.523
rfoot -10.0537 2.80053
rtoes -17.2282
lfemur -66.9965 9.2046 13.8146
ltibia 78.03
lfoot 11.8944 -17.3914
ltoes -23.5207
165
root 12.9259 10.2248 12.5605 -18.3762 18.7543 -1.43858
lowerback 45.6718 -5.95693 -3.31024
upperback 18.1266 -7.74372 3.31514
thorax 0.232821 -4.19938 7.95922
lowerneck 3.35917 -20.7438 -12.4418
upperneck 22.7781 -34.1903 23.9022
head 14.1767 -15.461 5.6851
rclavicle -3.91606e-014 2.48481e-014
rhumerus -79.2173 -32.7471 -19.347
rradius 111.463
rwrist 20.7226
rhand -30.7681 28.0926
rfingers 7.12502
rthumb -4.05918 -1.84846
lclavicle -3.91606e-014 2.48481e-014
lhumerus -10.2883 11.8871 23.939
lradius 69.889
lwrist 14.9874
lhand -25.8846 9.24161
lfingers 7.12502
lthumb 0.657209 39.2203
rfemur -77.5708 -1.89614 6.41159
rtibia 100.036
rfoot -10.2575 2.67541
rtoes -21.586
lfemur -66.3808 8.56465 13.4104
ltibia 77.6297
lfoot 11.1193 -16.5413
ltoes -22.2235
166
root 12.8993 10.2749 12.5548 -19.0826 18.65 -1.55012
lowerback 46.2101 -5.95758 -3.3163
upperback 18.2655 -7.73106 3.48686
thorax 0.282284 -4.21604 8.16232
lowerneck 3.36847 -20.6253 -12.884
upperneck 22.9495 -34.0832 23.9615
head 14.3379 -15.4234 5.78716
rclavicle -5.96354e-015 -3.67255e-014
rhumerus -78.5444 -32.2366 -19.9428
rradius 110.804
rwrist 20.9857
rhand -31.0398 27.4973
rfingers 7.12502
rthumb -4.32156 -2.43863
lclavicle -5.96354e-015 -3.67255e-014
lhumerus -10.1508 10.8587 24.7398
lradius 70.5765
lwrist 15.0414
lhand -25.5934 9.5255
lfingers 7.12502
lthumb 0.938463 39.5032
rfemur -76.3687 -1.33176 6.73714
rtibia 99.4408
rfoot -10.7003 2.5358
rtoes -25.8778
lfemur -65.345 8.40465 13.5691
ltibia 77.3022
lfoot 9.0992 -16.5067
ltoes -25.9872
167
root 12.8772 10.3245 12.5463 -19.7365 18.4882 -1.79389
lowerback 46.611 -6.03884 -3.10038
upperback 18.4358 -7.72467 3.64993
thorax 0.379596 -4.22213 8.23847
lowerneck 3.34122 -20.5716 -13.2087
upperneck 23.1551 -34.0501 23.9394
head 14.4939 -15.4093 5.8243
rclavicle 3.07806e-014 -4.55527e-014
rhumerus -78.0851 -31.8994 -20.1035
rradius 107.892
rwrist 26.8234
rhand -37.5887 28.2736
rfingers 7.12502
rthumb -10.6425 -1.43688
lclavicle 3.07806e-014 -4.55527e-014
lhumerus -9.90186 10.0436 25.6689
lradius 71.1164
lwrist 14.8869
lhand -25.1099 9.8295
lfingers 7.12502
lthumb 1.40539 39.8046
rfemur -75.2223 -0.746463 7.18389
rtibia 98.8267
rfoot -11.3237 2.40409
rtoes -29.4853
lfemur -64.44 8.45799 13.7943
ltibia 77.0188
lfoot 7.05745 -16.274
ltoes -29.4281
168
root 12.8576 10.3752 12.5228 -20.0467 18.3999 -2.15638
lowerback 46.6437 -6.25392 -2.61857
upperback 18.6105 -7.76958 3.79312
thorax 0.547105 -4.2329 8.15907
lowerneck 3.34825 -20.617 -13.1838
upperneck 23.2006 -34.0228 23.6873
head 14.4254 -15.4009 5.7378
rclavicle -1.66234e-014 7.12395e-014
rhumerus -77.457 -31.7894 -20.5287
rradius 106.705
rwrist 27.6018
rhand -38.4332 27.2953
rfingers 7.12502
rthumb -11.4571 -2.37159
lclavicle -1.66234e-014 7.12395e-014
lhumerus -9.61549 9.19933 26.552
lradius 71.6026
lwrist 14.7886
lhand -25.0458 9.71367
lfingers 7.12502
lthumb 1.46731 39.6884
rfemur -74.6839 -0.287638 7.62723
rtibia 98.2212
rfoot -11.5975 2.63059
rtoes -30.1205
lfemur -64.0599 8.63257 13.9985
ltibia 76.7132
lfoot 6.04054 -15.4531
ltoes -27.757
169
root 12.8309 10.4414 12.4884 -20.1656 18.6547 -1.78348
lowerback 46.6674 -6.31195 -2.81346
upperback 18.7612 -7.90978 3.78058
thorax 0.752689 -4.32461 8.2814
lowerneck 3.52836 -20.5638 -13.1054
upperneck 23.0458 -33.8963 23.7257
head 14.2786 -15.3641 5.7987
rclavicle 6.09772e-014 -5.71009e-014
rhumerus -76.7827 -31.7588 -21.4692
rradius 106.192
rwrist 27.9884
rhand -38.5447 26.3246
rfingers 7.12502
rthumb -11.5646 -3.33634
lclavicle 6.09772e-014 -5.71009e-014
lhumerus -9.4341 8.14642 27.2293
lradius 72.0613
lwrist 14.5123
lhand -25.0554 9.46628
lfingers 7.12502
lthumb 1.45808 39.441
rfemur -74.3891 0.0205494 7.13176
rtibia 97.5754
rfoot -11.1638 3.60993
rtoes -26.3412
lfemur -63.6595 8.48251 13.2751
ltibia 76.3087
lfoot 5.34214 -14.5572
ltoes -24.4071
